<svg width="189" height="34" viewBox="0 0 189 34" fill="none" xmlns="http://www.w3.org/2000/svg">
<path d="M8.1195 26C6.0105 26 4.364 25.5745 3.18 24.7235C2.00833 23.8725 1.2745 22.559 0.9785 20.783C0.929167 20.2403 1.04017 19.8333 1.3115 19.562C1.58283 19.2907 1.9775 19.155 2.4955 19.155C3.0135 19.155 3.38967 19.2783 3.624 19.525C3.87067 19.7717 4.03717 20.154 4.1235 20.672C4.3085 21.523 4.70317 22.1088 5.3075 22.4295C5.92417 22.7378 6.8615 22.892 8.1195 22.892H13.4475C15.0385 22.892 16.1177 22.6083 16.685 22.041C17.2647 21.4613 17.5545 20.3883 17.5545 18.822C17.5545 17.231 17.2585 16.1457 16.6665 15.566C16.0745 14.974 15.0015 14.678 13.4475 14.678H8.8595C6.5285 14.678 4.79567 14.1107 3.661 12.976C2.53867 11.829 1.9775 10.09 1.9775 7.759C1.9775 5.44033 2.5325 3.71983 3.6425 2.5975C4.76483 1.47517 6.4915 0.913999 8.8225 0.913999H13.2255C15.1865 0.913999 16.722 1.31483 17.832 2.1165C18.9543 2.91817 19.6635 4.14533 19.9595 5.798C20.0335 6.32833 19.9348 6.73533 19.6635 7.019C19.3922 7.29033 18.9852 7.426 18.4425 7.426C17.9492 7.426 17.5792 7.2965 17.3325 7.0375C17.0858 6.7785 16.9255 6.40233 16.8515 5.909C16.6542 5.18133 16.278 4.688 15.723 4.429C15.168 4.15767 14.3355 4.022 13.2255 4.022H8.8225C7.3425 4.022 6.34967 4.28717 5.844 4.8175C5.33833 5.3355 5.0855 6.316 5.0855 7.759C5.0855 9.21433 5.3445 10.2133 5.8625 10.756C6.3805 11.2987 7.3795 11.57 8.8595 11.57H13.4475C15.8772 11.57 17.684 12.162 18.868 13.346C20.0643 14.53 20.6625 16.3553 20.6625 18.822C20.6625 21.2763 20.0705 23.0893 18.8865 24.261C17.7025 25.4203 15.8895 26 13.4475 26H8.1195ZM35.3102 33.4C34.2742 33.4 33.7562 32.882 33.7562 31.846V8.795C33.7562 7.759 34.2742 7.241 35.3102 7.241C36.3462 7.241 36.8642 7.759 36.8642 8.795V9.2575C37.5302 8.5915 38.3503 8.092 39.3247 7.759C40.3113 7.41367 41.4152 7.241 42.6362 7.241H44.0422C46.5088 7.241 48.3342 7.833 49.5182 9.017C50.7022 10.201 51.2942 12.0263 51.2942 14.493V18.748C51.2942 21.2023 50.7022 23.0277 49.5182 24.224C48.3342 25.408 46.5088 26 44.0422 26H36.8642V31.846C36.8642 32.882 36.3462 33.4 35.3102 33.4ZM36.8642 22.892H44.0422C45.6578 22.892 46.7493 22.6022 47.3167 22.0225C47.8963 21.4428 48.1862 20.3513 48.1862 18.748V14.493C48.1862 12.8773 47.8963 11.7858 47.3167 11.2185C46.7493 10.6388 45.6578 10.349 44.0422 10.349H42.6362C41.0945 10.349 39.7625 10.534 38.6402 10.904C37.5178 11.274 36.9258 11.8598 36.8642 12.6615V22.892ZM70.1717 26C68.0997 26 66.558 25.4943 65.5467 24.483C64.5353 23.4717 64.0297 21.93 64.0297 19.858C64.0297 17.786 64.5292 16.2443 65.5282 15.233C66.5395 14.2217 68.0873 13.716 70.1717 13.716H77.9972C77.9232 12.421 77.584 11.5392 76.9797 11.0705C76.3753 10.5895 75.3393 10.349 73.8717 10.349H71.7257C70.4923 10.349 69.5735 10.4353 68.9692 10.608C68.3648 10.7683 67.9393 11.0643 67.6927 11.496C67.4707 12.014 67.2425 12.3717 67.0082 12.569C66.7738 12.7663 66.4223 12.865 65.9537 12.865C65.4357 12.865 65.0287 12.7232 64.7327 12.4395C64.4367 12.1435 64.3503 11.755 64.4737 11.274C64.8437 9.88033 65.6145 8.86283 66.7862 8.2215C67.9702 7.56783 69.6167 7.241 71.7257 7.241H73.8717C76.3383 7.241 78.1637 7.833 79.3477 9.017C80.5317 10.201 81.1237 12.0263 81.1237 14.493V24.446C81.1237 25.482 80.6057 26 79.5697 26C78.5337 26 78.0157 25.482 78.0157 24.446V23.6135C76.696 25.2045 74.772 26 72.2437 26H70.1717ZM70.1717 22.892H72.2437C73.1563 22.892 74.0135 22.8118 74.8152 22.6515C75.6168 22.4788 76.3013 22.1705 76.8687 21.7265C77.4483 21.2825 77.8307 20.6473 78.0157 19.821V16.824H70.1717C68.9507 16.824 68.1367 17.0275 67.7297 17.4345C67.335 17.8415 67.1377 18.6493 67.1377 19.858C67.1377 21.079 67.335 21.893 67.7297 22.3C68.1367 22.6947 68.9507 22.892 70.1717 22.892ZM101.118 26C98.6638 26 96.8385 25.408 95.6421 24.224C94.4581 23.0277 93.8661 21.2023 93.8661 18.748V14.456C93.8661 11.9893 94.452 10.164 95.6236 8.98C96.8076 7.796 98.6391 7.21633 101.118 7.241H104.152C105.99 7.241 107.433 7.54933 108.481 8.166C109.542 8.78267 110.22 9.73233 110.516 11.015C110.627 11.533 110.535 11.9338 110.239 12.2175C109.955 12.5012 109.542 12.643 108.999 12.643C108.518 12.643 108.167 12.5197 107.945 12.273C107.723 12.0263 107.519 11.681 107.334 11.237C107.149 10.904 106.81 10.6758 106.317 10.5525C105.823 10.4168 105.102 10.349 104.152 10.349H101.118C99.5271 10.3243 98.4356 10.6018 97.8436 11.1815C97.264 11.7488 96.9741 12.8403 96.9741 14.456V18.748C96.9741 20.3513 97.264 21.4428 97.8436 22.0225C98.4356 22.6022 99.5271 22.892 101.118 22.892H104.152C105.102 22.892 105.823 22.8303 106.317 22.707C106.81 22.5713 107.149 22.337 107.334 22.004C107.519 21.5353 107.723 21.1838 107.945 20.9495C108.179 20.7152 108.543 20.598 109.036 20.598C109.554 20.598 109.955 20.7398 110.239 21.0235C110.535 21.3072 110.627 21.708 110.516 22.226C110.22 23.4963 109.542 24.446 108.481 25.075C107.433 25.6917 105.99 26 104.152 26H101.118ZM125.486 17.897V18.785C125.486 20.376 125.776 21.4613 126.355 22.041C126.935 22.6083 128.026 22.892 129.63 22.892H132.664C133.922 22.892 134.853 22.7748 135.457 22.5405C136.062 22.3062 136.462 21.893 136.66 21.301C136.795 20.8323 136.98 20.4747 137.215 20.228C137.461 19.9813 137.831 19.858 138.325 19.858C138.843 19.858 139.237 19.9937 139.509 20.265C139.78 20.5363 139.866 20.931 139.768 21.449C139.496 22.9783 138.769 24.1192 137.585 24.8715C136.401 25.6238 134.76 26 132.664 26H129.63C127.175 26 125.35 25.408 124.154 24.224C122.97 23.04 122.378 21.227 122.378 18.785V14.493C122.378 11.9893 122.97 10.1517 124.154 8.98C125.35 7.796 127.175 7.21633 129.63 7.241H132.664C135.13 7.241 136.956 7.833 138.14 9.017C139.324 10.1887 139.916 12.014 139.916 14.493V16.343C139.916 17.379 139.398 17.897 138.362 17.897H125.486ZM129.63 10.349C128.026 10.3243 126.935 10.6018 126.355 11.1815C125.776 11.7612 125.486 12.865 125.486 14.493V14.789H136.808V14.493C136.808 12.8773 136.518 11.7858 135.938 11.2185C135.371 10.6388 134.279 10.349 132.664 10.349H129.63ZM170.265 25.667C169.438 25.0997 169.315 24.372 169.895 23.484L176.666 13.494L169.525 3.43C168.97 2.616 169.105 1.88833 169.932 1.247C170.783 0.667332 171.498 0.802998 172.078 1.654L178.701 10.941L185.361 1.654C186.002 0.827666 186.717 0.716666 187.507 1.321C188.345 1.93767 188.469 2.653 187.877 3.467L180.588 13.605L187.581 23.447C188.16 24.298 188.025 25.038 187.174 25.667C186.323 26.2467 185.607 26.111 185.028 25.26L178.59 16.195L172.448 25.297C171.88 26.0987 171.153 26.222 170.265 25.667Z" fill="#3D3131"/>
</svg>
